<svg xmlns="http://www.w3.org/2000/svg" xmlns:xlink="http://www.w3.org/1999/xlink" width="500" zoomAndPan="magnify" viewBox="0 0 375 374.999991" height="500" preserveAspectRatio="xMidYMid meet" version="1.0"><defs><g/><clipPath id="c0c6e2f459"><path d="M 80.339844 80.339844 L 294.839844 80.339844 L 294.839844 294.839844 L 80.339844 294.839844 Z M 80.339844 80.339844 " clip-rule="nonzero"/></clipPath><clipPath id="08865ab6a6"><path d="M 148.703125 157 L 198 157 L 198 188 L 148.703125 188 Z M 148.703125 157 " clip-rule="nonzero"/></clipPath><clipPath id="c81989844c"><path d="M 205 157 L 225.953125 157 L 225.953125 169 L 205 169 Z M 205 157 " clip-rule="nonzero"/></clipPath><clipPath id="b631c2dad8"><rect x="0" width="165" y="0" height="26"/></clipPath><clipPath id="0fd563258d"><rect x="0" width="206" y="0" height="136"/></clipPath><clipPath id="80dffbb427"><rect x="0" width="101" y="0" height="29"/></clipPath></defs><g clip-path="url(#c0c6e2f459)"><path fill="#4b909f" d="M 87.605469 226.332031 C 82.914062 214.285156 80.335938 201.183594 80.335938 187.484375 C 80.335938 128.347656 128.351562 80.332031 187.492188 80.332031 C 246.636719 80.332031 294.652344 128.347656 294.652344 187.484375 C 294.652344 201.183594 292.070312 214.285156 287.382812 226.332031 C 282.730469 238.269531 276.003906 249.171875 267.640625 258.582031 C 248 280.703125 219.363281 294.640625 187.492188 294.640625 C 155.625 294.640625 126.980469 280.703125 107.347656 258.582031 C 98.984375 249.171875 92.257812 238.269531 87.605469 226.332031 Z M 228.492188 256.621094 C 215.730469 256.078125 201.917969 255.734375 187.492188 255.734375 C 173.070312 255.734375 159.257812 256.078125 146.492188 256.621094 C 158.5 263.761719 172.523438 267.859375 187.492188 267.859375 C 202.464844 267.859375 216.488281 263.761719 228.492188 256.621094 Z M 115.199219 222.628906 C 135.121094 221.195312 160.222656 219.957031 187.492188 219.957031 C 214.757812 219.957031 239.867188 221.195312 259.789062 222.628906 C 264.960938 212.007812 267.871094 200.085938 267.871094 187.484375 C 267.871094 143.125 231.855469 107.105469 187.492188 107.105469 C 143.132812 107.105469 107.117188 143.125 107.117188 187.484375 C 107.117188 200.085938 110.019531 212.007812 115.199219 222.628906 Z M 266.410156 256.789062 C 274.140625 247.996094 280.433594 237.890625 284.902344 226.859375 C 278.148438 226.207031 269.847656 225.476562 260.34375 224.78125 C 240.351562 223.332031 215.027344 222.066406 187.492188 222.066406 C 159.960938 222.066406 134.628906 223.332031 114.644531 224.78125 C 105.140625 225.476562 96.839844 226.207031 90.085938 226.859375 C 94.554688 237.890625 100.847656 247.996094 108.578125 256.789062 C 118.617188 256.007812 130.242188 255.242188 143.007812 254.660156 C 156.726562 254.035156 171.75 253.625 187.492188 253.625 C 203.238281 253.625 218.257812 254.035156 231.980469 254.660156 C 244.738281 255.242188 256.371094 256.007812 266.410156 256.789062 Z M 285.703125 224.820312 C 290.117188 213.21875 292.542969 200.636719 292.542969 187.484375 C 292.542969 129.507812 245.46875 82.441406 187.492188 82.441406 C 129.519531 82.441406 82.445312 129.507812 82.445312 187.484375 C 82.445312 200.636719 84.871094 213.21875 89.285156 224.820312 C 95.792969 224.183594 103.785156 223.472656 112.9375 222.789062 C 107.855469 212.085938 105.007812 200.113281 105.007812 187.484375 C 105.007812 141.964844 141.964844 104.996094 187.492188 104.996094 C 233.019531 104.996094 269.980469 141.964844 269.980469 187.484375 C 269.980469 200.113281 267.132812 212.085938 262.050781 222.789062 C 271.203125 223.472656 279.195312 224.183594 285.703125 224.820312 Z M 110.355469 258.773438 C 129.554688 279.527344 157.015625 292.53125 187.492188 292.53125 C 217.972656 292.53125 245.425781 279.527344 264.625 258.773438 C 255.078125 258.035156 244.148438 257.332031 232.226562 256.78125 C 219.335938 265.125 203.976562 269.96875 187.492188 269.96875 C 171.011719 269.96875 155.652344 265.125 142.761719 256.78125 C 130.839844 257.332031 119.910156 258.035156 110.355469 258.773438 Z M 110.355469 258.773438 " fill-opacity="1" fill-rule="evenodd"/></g><path fill="#c71310" d="M 190.449219 144.9375 C 190.449219 144.9375 186.582031 141.953125 186.105469 137.132812 C 186.105469 137.132812 185.96875 136.589844 188.003906 135.300781 C 188.003906 135.300781 188.753906 134.28125 186.988281 131.839844 C 186.988281 131.839844 185.425781 129.667969 181.863281 129.699219 C 181.863281 129.699219 179.523438 129.496094 176.535156 131.667969 C 176.535156 131.667969 172.777344 135.226562 175.570312 141.535156 C 175.585938 141.574219 175.601562 141.609375 175.621094 141.644531 C 175.621094 141.644531 177.894531 146.125 186.988281 148.296875 C 186.988281 148.296875 194.859375 149.484375 199.101562 151.351562 C 199.101562 151.351562 204.023438 153.589844 205.277344 159.054688 C 205.277344 159.054688 206.332031 163.601562 202.734375 170.152344 C 202.734375 170.152344 199.355469 176.191406 189.582031 178.328125 L 189.582031 174.308594 C 189.582031 174.308594 198.339844 171.710938 198.847656 163.058594 C 198.847656 163.058594 199.558594 157.714844 195.84375 155.933594 C 195.84375 155.933594 192.550781 154.03125 185.085938 152.199219 C 185.085938 152.199219 174.429688 149.890625 171.105469 141.136719 C 171.105469 141.136719 169 133.058594 175.515625 128.378906 C 175.515625 128.378906 184.136719 123.082031 190.042969 130.890625 C 190.042969 130.890625 190.71875 132.382812 191.128906 134.011719 C 191.128906 134.011719 191.128906 134.824219 191.804688 135.027344 C 191.804688 135.027344 193.707031 135.707031 193.640625 137.402344 C 193.640625 137.402344 193.707031 140.59375 191.46875 144.597656 C 191.464844 144.597656 190.988281 145.003906 190.445312 144.9375 Z M 190.449219 144.9375 " fill-opacity="1" fill-rule="nonzero"/><g clip-path="url(#08865ab6a6)"><path fill="#c71310" d="M 148.707031 157.359375 L 196.558594 157.359375 C 196.558594 157.359375 201.34375 168.558594 188.71875 173.238281 L 188.71875 187.492188 C 188.71875 187.492188 187.191406 188.613281 185.460938 187.492188 L 185.460938 173.75 C 185.460938 173.75 174.058594 173.546875 164.691406 164.992188 C 164.691406 164.992188 159.5 160.308594 153.390625 160.207031 C 153.390625 160.207031 151.761719 160.820312 148.707031 157.359375 Z M 148.707031 157.359375 " fill-opacity="1" fill-rule="nonzero"/></g><g clip-path="url(#c81989844c)"><path fill="#c71310" d="M 206.226562 157.359375 L 226.285156 157.359375 C 226.285156 157.359375 225.265625 159.191406 219.464844 160.003906 C 219.464844 160.003906 210.503906 161.53125 205.210938 168.351562 C 205.210938 168.351562 208.0625 161.9375 206.226562 157.359375 Z M 206.226562 157.359375 " fill-opacity="1" fill-rule="nonzero"/></g><path fill="#c71310" d="M 184.695312 174.765625 C 184.695312 174.765625 178.84375 174.105469 176.042969 181.792969 C 176.042969 181.792969 174.363281 188.460938 183.425781 192.023438 C 183.425781 192.023438 194.0625 193.601562 198.542969 188.867188 C 198.542969 188.867188 203.886719 182.960938 198.695312 180.265625 C 198.695312 180.265625 195.082031 178.738281 189.734375 180.722656 L 189.734375 183.371094 C 189.734375 183.371094 192.28125 182.554688 193.503906 183.164062 C 193.503906 183.164062 195.996094 185 193.453125 187.238281 C 193.453125 187.238281 188.792969 190.445312 183.246094 187.773438 C 183.246094 187.773438 179.226562 185.710938 181.640625 180.976562 C 181.640625 180.976562 183.195312 179.296875 184.644531 178.839844 Z M 184.695312 174.765625 " fill-opacity="1" fill-rule="nonzero"/><path fill="#c71310" d="M 184.644531 182.875 L 184.644531 185.828125 L 183.289062 186.746094 C 183.289062 186.746094 182.882812 186.644531 181.898438 185.320312 C 181.898438 185.320312 182.371094 183.691406 184.644531 182.875 Z M 184.644531 182.875 " fill-opacity="1" fill-rule="nonzero"/><path fill="#c71310" d="M 179.183594 191.257812 C 179.183594 191.257812 180.945312 192.515625 182.472656 193.195312 C 182.472656 193.195312 182.066406 198.25 187.15625 199.539062 C 187.15625 199.539062 189.90625 200.183594 191.804688 200.488281 C 191.804688 200.488281 196.421875 200.796875 198.117188 203.304688 C 198.117188 203.304688 198.644531 204.1875 196.8125 203.476562 C 196.8125 203.476562 195.589844 202.585938 194.417969 202.535156 C 194.417969 202.535156 186.527344 202.457031 181.972656 200.140625 C 181.972656 200.140625 176.824219 196.707031 179.179688 191.257812 Z M 179.183594 191.257812 " fill-opacity="1" fill-rule="nonzero"/><path fill="#c71310" d="M 185.433594 193.320312 L 185.433594 197.773438 C 185.433594 197.773438 187.878906 199.148438 188.769531 199.023438 L 188.769531 193.371094 Z M 185.433594 193.320312 " fill-opacity="1" fill-rule="nonzero"/><path fill="#c71310" d="M 185.433594 202.355469 C 185.433594 202.355469 186.859375 202.839844 188.769531 203.019531 C 188.769531 203.019531 188.921875 209.125 192.839844 209.175781 C 196.761719 209.226562 197.320312 210.347656 198.695312 210.855469 C 200.070312 211.367188 200.476562 211.214844 201.75 211.214844 C 201.75 211.214844 204.652344 211.570312 207.042969 212.894531 L 168.101562 212.894531 C 168.101562 212.894531 171.359375 211.570312 173.753906 211.570312 C 173.753906 211.570312 175.535156 211.570312 177.265625 211.007812 C 177.265625 211.007812 179.808594 209.378906 182.710938 209.429688 C 182.710938 209.429688 185.433594 208.871094 185.433594 206.683594 Z M 185.433594 202.355469 " fill-opacity="1" fill-rule="nonzero"/><g transform="matrix(1, 0, 0, 1, 105, 225)"><g clip-path="url(#b631c2dad8)"><g fill="#c71310" fill-opacity="1"><g transform="translate(2.637266, 21.545925)"><g><path d="M 4.546875 -0.484375 C 3.660156 -0.367188 2.882812 -0.46875 2.21875 -0.78125 C 1.5625 -1.101562 1.035156 -1.585938 0.640625 -2.234375 C 0.253906 -2.878906 0.00390625 -3.617188 -0.109375 -4.453125 C -0.210938 -5.285156 -0.15625 -6.066406 0.0625 -6.796875 C 0.28125 -7.535156 0.664062 -8.148438 1.21875 -8.640625 C 1.769531 -9.128906 2.484375 -9.429688 3.359375 -9.546875 C 4.210938 -9.648438 4.96875 -9.535156 5.625 -9.203125 C 6.289062 -8.878906 6.820312 -8.390625 7.21875 -7.734375 C 7.613281 -7.078125 7.863281 -6.332031 7.96875 -5.5 C 8.082031 -4.65625 8.03125 -3.867188 7.8125 -3.140625 C 7.59375 -2.421875 7.207031 -1.820312 6.65625 -1.34375 C 6.101562 -0.875 5.398438 -0.585938 4.546875 -0.484375 Z M 4.3125 -2.21875 C 4.925781 -2.289062 5.367188 -2.613281 5.640625 -3.1875 C 5.910156 -3.757812 5.992188 -4.445312 5.890625 -5.25 C 5.796875 -6.03125 5.539062 -6.671875 5.125 -7.171875 C 4.71875 -7.671875 4.207031 -7.882812 3.59375 -7.8125 C 3.15625 -7.75 2.800781 -7.570312 2.53125 -7.28125 C 2.269531 -6.988281 2.09375 -6.613281 2 -6.15625 C 1.914062 -5.707031 1.90625 -5.234375 1.96875 -4.734375 C 2.070312 -3.953125 2.328125 -3.316406 2.734375 -2.828125 C 3.140625 -2.335938 3.664062 -2.132812 4.3125 -2.21875 Z M 4.3125 -2.21875 "/></g></g></g><g fill="#c71310" fill-opacity="1"><g transform="translate(12.854515, 20.228143)"><g><path d="M 4.53125 -0.40625 C 3.6875 -0.300781 2.9375 -0.421875 2.28125 -0.765625 C 1.625 -1.117188 1.097656 -1.625 0.703125 -2.28125 C 0.316406 -2.9375 0.078125 -3.671875 -0.015625 -4.484375 C -0.109375 -5.296875 -0.0390625 -6.066406 0.1875 -6.796875 C 0.425781 -7.523438 0.828125 -8.128906 1.390625 -8.609375 C 1.953125 -9.085938 2.65625 -9.378906 3.5 -9.484375 C 4.53125 -9.597656 5.40625 -9.390625 6.125 -8.859375 C 6.851562 -8.335938 7.367188 -7.609375 7.671875 -6.671875 L 5.765625 -6.453125 C 5.609375 -6.867188 5.347656 -7.207031 4.984375 -7.46875 C 4.628906 -7.726562 4.207031 -7.832031 3.71875 -7.78125 C 3.0625 -7.695312 2.585938 -7.375 2.296875 -6.8125 C 2.015625 -6.257812 1.921875 -5.5625 2.015625 -4.71875 C 2.109375 -3.863281 2.351562 -3.191406 2.75 -2.703125 C 3.15625 -2.222656 3.6875 -2.023438 4.34375 -2.109375 C 4.832031 -2.160156 5.21875 -2.347656 5.5 -2.671875 C 5.789062 -2.992188 5.96875 -3.359375 6.03125 -3.765625 L 7.921875 -3.96875 C 7.835938 -3.019531 7.503906 -2.210938 6.921875 -1.546875 C 6.347656 -0.890625 5.550781 -0.507812 4.53125 -0.40625 Z M 4.53125 -0.40625 "/></g></g></g><g fill="#c71310" fill-opacity="1"><g transform="translate(22.756601, 19.125972)"><g><path d="M 5.46875 -2.578125 L 2.65625 -2.296875 L 2.21875 -0.21875 L 0.234375 -0.015625 L 2.515625 -9.140625 L 4.34375 -9.3125 L 8.3125 -0.796875 L 6.3125 -0.609375 Z M 4.84375 -4.046875 L 3.671875 -6.796875 L 3.609375 -6.796875 L 2.984375 -3.859375 Z M 4.84375 -4.046875 "/></g></g></g><g fill="#c71310" fill-opacity="1"><g transform="translate(32.398622, 18.214793)"><g><path d="M 4.546875 -0.25 C 3.691406 -0.175781 2.941406 -0.320312 2.296875 -0.6875 C 1.660156 -1.0625 1.15625 -1.582031 0.78125 -2.25 C 0.414062 -2.914062 0.203125 -3.660156 0.140625 -4.484375 C 0.078125 -5.296875 0.175781 -6.0625 0.4375 -6.78125 C 0.695312 -7.5 1.113281 -8.085938 1.6875 -8.546875 C 2.257812 -9.015625 2.972656 -9.285156 3.828125 -9.359375 C 4.859375 -9.429688 5.722656 -9.191406 6.421875 -8.640625 C 7.128906 -8.097656 7.613281 -7.351562 7.875 -6.40625 L 5.984375 -6.25 C 5.847656 -6.675781 5.597656 -7.023438 5.234375 -7.296875 C 4.878906 -7.566406 4.457031 -7.6875 3.96875 -7.65625 C 3.300781 -7.601562 2.816406 -7.300781 2.515625 -6.75 C 2.222656 -6.195312 2.113281 -5.5 2.1875 -4.65625 C 2.25 -3.789062 2.46875 -3.113281 2.84375 -2.625 C 3.226562 -2.132812 3.753906 -1.914062 4.421875 -1.96875 C 4.910156 -2 5.304688 -2.171875 5.609375 -2.484375 C 5.910156 -2.796875 6.097656 -3.148438 6.171875 -3.546875 L 8.046875 -3.703125 C 7.929688 -2.765625 7.570312 -1.972656 6.96875 -1.328125 C 6.375 -0.679688 5.566406 -0.320312 4.546875 -0.25 Z M 4.546875 -0.25 "/></g></g></g><g fill="#c71310" fill-opacity="1"><g transform="translate(42.331846, 17.447289)"><g><path d="M 7.390625 -9.328125 L 7.9375 -0.484375 L 5.953125 -0.359375 L 5.734375 -4.03125 L 2.40625 -3.828125 L 2.625 -0.15625 L 0.65625 -0.046875 L 0.109375 -8.890625 L 2.078125 -9 L 2.3125 -5.359375 L 5.640625 -5.5625 L 5.40625 -9.203125 Z M 7.390625 -9.328125 "/></g></g></g><g fill="#c71310" fill-opacity="1"><g transform="translate(52.08549, 16.856692)"><g><path d="M 4.5625 -0.09375 C 3.675781 -0.0507812 2.914062 -0.21875 2.28125 -0.59375 C 1.65625 -0.976562 1.171875 -1.503906 0.828125 -2.171875 C 0.492188 -2.847656 0.3125 -3.601562 0.28125 -4.4375 C 0.238281 -5.28125 0.359375 -6.054688 0.640625 -6.765625 C 0.921875 -7.484375 1.359375 -8.0625 1.953125 -8.5 C 2.554688 -8.9375 3.296875 -9.175781 4.171875 -9.21875 C 5.035156 -9.25 5.78125 -9.078125 6.40625 -8.703125 C 7.03125 -8.328125 7.507812 -7.789062 7.84375 -7.09375 C 8.1875 -6.40625 8.378906 -5.640625 8.421875 -4.796875 C 8.453125 -3.953125 8.328125 -3.179688 8.046875 -2.484375 C 7.773438 -1.785156 7.34375 -1.21875 6.75 -0.78125 C 6.15625 -0.351562 5.425781 -0.125 4.5625 -0.09375 Z M 4.484375 -1.84375 C 5.109375 -1.863281 5.578125 -2.144531 5.890625 -2.6875 C 6.210938 -3.238281 6.359375 -3.914062 6.328125 -4.71875 C 6.285156 -5.507812 6.082031 -6.171875 5.71875 -6.703125 C 5.363281 -7.242188 4.875 -7.503906 4.25 -7.484375 C 3.8125 -7.460938 3.445312 -7.3125 3.15625 -7.03125 C 2.875 -6.757812 2.664062 -6.40625 2.53125 -5.96875 C 2.394531 -5.53125 2.34375 -5.054688 2.375 -4.546875 C 2.40625 -3.765625 2.601562 -3.109375 2.96875 -2.578125 C 3.332031 -2.054688 3.835938 -1.8125 4.484375 -1.84375 Z M 4.484375 -1.84375 "/></g></g></g><g fill="#c71310" fill-opacity="1"><g transform="translate(62.406133, 16.429141)"><g/></g></g><g fill="#c71310" fill-opacity="1"><g transform="translate(66.516652, 16.292498)"><g><path d="M 3.578125 -3.171875 L 2.5625 -3.140625 L 2.625 -0.046875 L 0.65625 -0.015625 L 0.46875 -8.875 L 3.84375 -8.9375 C 4.539062 -8.957031 5.132812 -8.835938 5.625 -8.578125 C 6.113281 -8.316406 6.476562 -7.960938 6.71875 -7.515625 C 6.96875 -7.078125 7.097656 -6.601562 7.109375 -6.09375 C 7.117188 -5.519531 6.984375 -5 6.703125 -4.53125 C 6.429688 -4.0625 6.023438 -3.707031 5.484375 -3.46875 L 7.4375 -0.15625 L 5.375 -0.109375 Z M 2.53125 -4.75 L 3.609375 -4.78125 C 4.066406 -4.789062 4.445312 -4.894531 4.75 -5.09375 C 5.0625 -5.289062 5.210938 -5.613281 5.203125 -6.0625 C 5.191406 -6.488281 5.03125 -6.789062 4.71875 -6.96875 C 4.414062 -7.144531 4.03125 -7.226562 3.5625 -7.21875 L 2.484375 -7.1875 Z M 2.53125 -4.75 "/></g></g></g><g fill="#c71310" fill-opacity="1"><g transform="translate(75.389295, 16.121971)"><g><path d="M 2.59375 -7.15625 L 2.609375 -5.265625 L 5.984375 -5.28125 L 6 -3.75 L 2.625 -3.734375 L 2.625 -1.734375 L 6.625 -1.75 L 6.640625 -0.03125 L 0.65625 0 L 0.609375 -8.859375 L 6.59375 -8.890625 L 6.59375 -7.171875 Z M 2.59375 -7.15625 "/></g></g></g><g fill="#c71310" fill-opacity="1"><g transform="translate(83.728355, 16.07894)"><g><path d="M 5.703125 -1.984375 L 2.875 -2.015625 L 2.234375 0.015625 L 0.234375 0 L 3.46875 -8.828125 L 5.3125 -8.8125 L 8.34375 0.078125 L 6.34375 0.0625 Z M 5.25 -3.515625 L 4.359375 -6.375 L 4.296875 -6.375 L 3.375 -3.53125 Z M 5.25 -3.515625 "/></g></g></g><g fill="#c71310" fill-opacity="1"><g transform="translate(93.422154, 16.190175)"><g><path d="M 6.40625 -1.5625 L 6.359375 0.15625 L 0.65625 0.015625 L 0.875 -8.84375 L 2.859375 -8.796875 L 2.671875 -1.65625 Z M 6.40625 -1.5625 "/></g></g></g><g fill="#c71310" fill-opacity="1"><g transform="translate(101.394426, 16.406023)"><g/></g></g><g fill="#c71310" fill-opacity="1"><g transform="translate(105.505869, 16.545849)"><g><path d="M 1.6875 -4.65625 L 6.234375 -4.4375 L 6.15625 -2.890625 L 1.609375 -3.109375 Z M 1.6875 -4.65625 "/></g></g></g><g fill="#c71310" fill-opacity="1"><g transform="translate(114.149806, 16.952127)"><g><path d="M 8.484375 -8.34375 L 7.9375 0.5 L 5.953125 0.375 L 6.1875 -3.296875 L 2.859375 -3.515625 L 2.625 0.15625 L 0.65625 0.046875 L 1.203125 -8.796875 L 3.171875 -8.6875 L 2.953125 -5.046875 L 6.28125 -4.828125 L 6.5 -8.46875 Z M 8.484375 -8.34375 "/></g></g></g><g fill="#c71310" fill-opacity="1"><g transform="translate(123.901888, 17.568092)"><g><path d="M 4.53125 0.46875 C 3.644531 0.394531 2.914062 0.132812 2.34375 -0.3125 C 1.769531 -0.769531 1.351562 -1.351562 1.09375 -2.0625 C 0.84375 -2.769531 0.75 -3.539062 0.8125 -4.375 C 0.882812 -5.21875 1.101562 -5.972656 1.46875 -6.640625 C 1.84375 -7.304688 2.347656 -7.820312 2.984375 -8.1875 C 3.628906 -8.550781 4.390625 -8.703125 5.265625 -8.640625 C 6.128906 -8.566406 6.847656 -8.300781 7.421875 -7.84375 C 7.992188 -7.382812 8.40625 -6.789062 8.65625 -6.0625 C 8.914062 -5.34375 9.007812 -4.5625 8.9375 -3.71875 C 8.875 -2.875 8.660156 -2.125 8.296875 -1.46875 C 7.929688 -0.8125 7.425781 -0.304688 6.78125 0.046875 C 6.144531 0.398438 5.394531 0.539062 4.53125 0.46875 Z M 4.671875 -1.28125 C 5.296875 -1.226562 5.796875 -1.453125 6.171875 -1.953125 C 6.554688 -2.453125 6.785156 -3.101562 6.859375 -3.90625 C 6.921875 -4.695312 6.800781 -5.378906 6.5 -5.953125 C 6.207031 -6.535156 5.75 -6.851562 5.125 -6.90625 C 4.6875 -6.9375 4.304688 -6.832031 3.984375 -6.59375 C 3.671875 -6.363281 3.421875 -6.035156 3.234375 -5.609375 C 3.046875 -5.191406 2.9375 -4.726562 2.90625 -4.21875 C 2.84375 -3.4375 2.957031 -2.765625 3.25 -2.203125 C 3.550781 -1.640625 4.023438 -1.332031 4.671875 -1.28125 Z M 4.671875 -1.28125 "/></g></g></g><g fill="#c71310" fill-opacity="1"><g transform="translate(134.162142, 18.388939)"><g><path d="M 1.53125 -8.75 L 4.453125 -8.453125 L 5.671875 -3.28125 L 5.703125 -3.28125 L 7.9375 -8.109375 L 10.859375 -7.828125 L 9.984375 0.984375 L 8.046875 0.796875 L 8.640625 -5.25 L 8.609375 -5.25 L 5.9375 0.59375 L 4.703125 0.46875 L 3.21875 -5.78125 L 3.171875 -5.796875 L 2.578125 0.25 L 0.65625 0.0625 Z M 1.53125 -8.75 "/></g></g></g><g fill="#c71310" fill-opacity="1"><g transform="translate(145.960108, 19.581186)"><g><path d="M 3.453125 -6.78125 L 3.234375 -4.90625 L 6.578125 -4.515625 L 6.40625 -2.984375 L 3.0625 -3.375 L 2.828125 -1.390625 L 6.796875 -0.9375 L 6.59375 0.765625 L 0.65625 0.078125 L 1.6875 -8.71875 L 7.625 -8.03125 L 7.421875 -6.328125 Z M 3.453125 -6.78125 "/></g></g></g><g fill="#c71310" fill-opacity="1"><g transform="translate(154.246508, 20.552944)"><g><path d="M 3.890625 0.625 C 3.179688 0.53125 2.585938 0.3125 2.109375 -0.03125 C 1.628906 -0.375 1.285156 -0.785156 1.078125 -1.265625 C 0.878906 -1.753906 0.8125 -2.238281 0.875 -2.71875 L 0.890625 -2.8125 L 3.046875 -2.53125 L 3.046875 -2.453125 C 3.003906 -2.148438 3.070312 -1.859375 3.25 -1.578125 C 3.425781 -1.296875 3.722656 -1.128906 4.140625 -1.078125 C 4.503906 -1.023438 4.804688 -1.078125 5.046875 -1.234375 C 5.285156 -1.398438 5.425781 -1.632812 5.46875 -1.9375 C 5.5 -2.195312 5.425781 -2.421875 5.25 -2.609375 C 5.082031 -2.796875 4.867188 -2.9375 4.609375 -3.03125 L 3.625 -3.375 C 3.0625 -3.582031 2.550781 -3.898438 2.09375 -4.328125 C 1.632812 -4.765625 1.457031 -5.40625 1.5625 -6.25 C 1.632812 -6.789062 1.828125 -7.238281 2.140625 -7.59375 C 2.453125 -7.945312 2.851562 -8.195312 3.34375 -8.34375 C 3.84375 -8.488281 4.390625 -8.523438 4.984375 -8.453125 C 5.660156 -8.359375 6.226562 -8.148438 6.6875 -7.828125 C 7.15625 -7.503906 7.484375 -7.117188 7.671875 -6.671875 C 7.867188 -6.234375 7.941406 -5.789062 7.890625 -5.34375 L 7.875 -5.28125 L 5.734375 -5.5625 L 5.75 -5.609375 C 5.78125 -5.859375 5.71875 -6.109375 5.5625 -6.359375 C 5.40625 -6.617188 5.117188 -6.78125 4.703125 -6.84375 C 4.390625 -6.882812 4.125 -6.828125 3.90625 -6.671875 C 3.695312 -6.515625 3.578125 -6.289062 3.546875 -6 C 3.503906 -5.738281 3.578125 -5.515625 3.765625 -5.328125 C 3.953125 -5.140625 4.1875 -4.992188 4.46875 -4.890625 L 5.46875 -4.546875 C 6.113281 -4.304688 6.640625 -3.960938 7.046875 -3.515625 C 7.460938 -3.066406 7.617188 -2.46875 7.515625 -1.71875 C 7.441406 -1.15625 7.238281 -0.679688 6.90625 -0.296875 C 6.570312 0.078125 6.140625 0.34375 5.609375 0.5 C 5.078125 0.664062 4.503906 0.707031 3.890625 0.625 Z M 3.890625 0.625 "/></g></g></g></g></g><g transform="matrix(1, 0, 0, 1, 84, 83)"><g clip-path="url(#0fd563258d)"><g fill="#19345c" fill-opacity="1"><g transform="translate(18.841059, 131.606068)"><g><path d="M -1.015625 -3.90625 C -0.804688 -3.15625 -0.800781 -2.46875 -1 -1.84375 C -1.195312 -1.226562 -1.546875 -0.703125 -2.046875 -0.265625 C -2.546875 0.160156 -3.148438 0.476562 -3.859375 0.6875 C -4.578125 0.894531 -5.269531 0.945312 -5.9375 0.84375 C -6.613281 0.75 -7.203125 0.488281 -7.703125 0.0625 C -8.210938 -0.351562 -8.570312 -0.929688 -8.78125 -1.671875 C -8.988281 -2.398438 -8.988281 -3.078125 -8.78125 -3.703125 C -8.582031 -4.328125 -8.222656 -4.851562 -7.703125 -5.28125 C -7.179688 -5.707031 -6.5625 -6.023438 -5.84375 -6.234375 C -5.125 -6.441406 -4.4375 -6.5 -3.78125 -6.40625 C -3.125 -6.3125 -2.550781 -6.050781 -2.0625 -5.625 C -1.570312 -5.207031 -1.222656 -4.632812 -1.015625 -3.90625 Z M -2.5 -3.453125 C -2.65625 -3.984375 -3 -4.328125 -3.53125 -4.484375 C -4.070312 -4.648438 -4.679688 -4.640625 -5.359375 -4.453125 C -6.035156 -4.253906 -6.5625 -3.945312 -6.9375 -3.53125 C -7.320312 -3.113281 -7.4375 -2.632812 -7.28125 -2.09375 C -7.175781 -1.726562 -6.976562 -1.445312 -6.6875 -1.25 C -6.394531 -1.0625 -6.046875 -0.957031 -5.640625 -0.9375 C -5.242188 -0.914062 -4.828125 -0.96875 -4.390625 -1.09375 C -3.722656 -1.28125 -3.203125 -1.582031 -2.828125 -2 C -2.453125 -2.425781 -2.34375 -2.910156 -2.5 -3.453125 Z M -2.5 -3.453125 "/></g></g></g><g fill="#19345c" fill-opacity="1"><g transform="translate(15.702656, 119.538023)"><g><path d="M -0.46875 -3.984375 C -0.363281 -3.234375 -0.453125 -2.566406 -0.734375 -1.984375 C -1.015625 -1.398438 -1.441406 -0.925781 -2.015625 -0.5625 C -2.597656 -0.195312 -3.242188 0.03125 -3.953125 0.125 C -4.679688 0.226562 -5.367188 0.1875 -6.015625 0 C -6.660156 -0.1875 -7.203125 -0.519531 -7.640625 -1 C -8.085938 -1.476562 -8.363281 -2.09375 -8.46875 -2.84375 C -8.601562 -3.757812 -8.441406 -4.539062 -7.984375 -5.1875 C -7.535156 -5.832031 -6.90625 -6.300781 -6.09375 -6.59375 L -5.84375 -4.921875 C -6.207031 -4.773438 -6.5 -4.539062 -6.71875 -4.21875 C -6.9375 -3.894531 -7.015625 -3.515625 -6.953125 -3.078125 C -6.867188 -2.492188 -6.578125 -2.082031 -6.078125 -1.84375 C -5.578125 -1.613281 -4.953125 -1.554688 -4.203125 -1.671875 C -3.453125 -1.773438 -2.867188 -2.003906 -2.453125 -2.359375 C -2.046875 -2.722656 -1.882812 -3.195312 -1.96875 -3.78125 C -2.03125 -4.207031 -2.207031 -4.539062 -2.5 -4.78125 C -2.789062 -5.03125 -3.113281 -5.179688 -3.46875 -5.234375 L -3.703125 -6.890625 C -2.867188 -6.835938 -2.148438 -6.5625 -1.546875 -6.0625 C -0.953125 -5.570312 -0.59375 -4.878906 -0.46875 -3.984375 Z M -0.46875 -3.984375 "/></g></g></g><g fill="#19345c" fill-opacity="1"><g transform="translate(14.295025, 107.445053)"><g><path d="M -7.84375 -6.96875 L -0.03125 -7.015625 L -0.03125 -5.265625 L -3.265625 -5.25 L -3.25 -2.3125 L -0.015625 -2.328125 L 0 -0.578125 L -7.8125 -0.53125 L -7.828125 -2.28125 L -4.625 -2.296875 L -4.640625 -5.234375 L -7.84375 -5.21875 Z M -7.84375 -6.96875 "/></g></g></g><g fill="#19345c" fill-opacity="1"><g transform="translate(14.528303, 95.427758)"><g><path d="M -1.15625 -5.21875 L -1.46875 -2.75 L 0.25 -1.953125 L 0.03125 -0.203125 L -7.359375 -3.953125 L -7.15625 -5.578125 L 0.953125 -7.296875 L 0.71875 -5.546875 Z M -2.515625 -4.984375 L -5.140625 -4.5 L -5.140625 -4.4375 L -2.734375 -3.328125 Z M -2.515625 -4.984375 "/></g></g></g><g fill="#19345c" fill-opacity="1"><g transform="translate(16.348316, 83.625747)"><g><path d="M 1.140625 -3.84375 C 0.941406 -3.113281 0.59375 -2.535156 0.09375 -2.109375 C -0.394531 -1.691406 -0.972656 -1.425781 -1.640625 -1.3125 C -2.316406 -1.207031 -3 -1.25 -3.6875 -1.4375 C -4.394531 -1.625 -5.007812 -1.929688 -5.53125 -2.359375 C -6.050781 -2.796875 -6.414062 -3.320312 -6.625 -3.9375 C -6.84375 -4.5625 -6.851562 -5.238281 -6.65625 -5.96875 C -6.414062 -6.851562 -5.960938 -7.503906 -5.296875 -7.921875 C -4.628906 -8.335938 -3.859375 -8.519531 -2.984375 -8.46875 L -3.4375 -6.828125 C -3.820312 -6.847656 -4.179688 -6.75 -4.515625 -6.53125 C -4.847656 -6.320312 -5.070312 -6.003906 -5.1875 -5.578125 C -5.332031 -5.003906 -5.222656 -4.507812 -4.859375 -4.09375 C -4.492188 -3.6875 -3.945312 -3.382812 -3.21875 -3.1875 C -2.488281 -2.988281 -1.859375 -2.972656 -1.328125 -3.140625 C -0.804688 -3.316406 -0.472656 -3.691406 -0.328125 -4.265625 C -0.210938 -4.679688 -0.234375 -5.054688 -0.390625 -5.390625 C -0.554688 -5.734375 -0.800781 -5.992188 -1.125 -6.171875 L -0.6875 -7.796875 C 0.0625 -7.421875 0.613281 -6.882812 0.96875 -6.1875 C 1.320312 -5.488281 1.378906 -4.707031 1.140625 -3.84375 Z M 1.140625 -3.84375 "/></g></g></g><g fill="#19345c" fill-opacity="1"><g transform="translate(19.82988, 71.957344)"><g><path d="M -4.453125 -9.5 L 2.734375 -6.453125 L 2.046875 -4.84375 L -0.9375 -6.109375 L -2.078125 -3.40625 L 0.90625 -2.140625 L 0.21875 -0.53125 L -6.96875 -3.578125 L -6.28125 -5.1875 L -3.34375 -3.9375 L -2.203125 -6.640625 L -5.140625 -7.890625 Z M -4.453125 -9.5 "/></g></g></g><g fill="#19345c" fill-opacity="1"><g transform="translate(24.768913, 61.010793)"><g><path d="M 2.140625 -3.421875 C 1.742188 -2.742188 1.25 -2.265625 0.65625 -1.984375 C 0.0703125 -1.703125 -0.546875 -1.597656 -1.203125 -1.671875 C -1.867188 -1.742188 -2.519531 -1.96875 -3.15625 -2.34375 C -3.789062 -2.71875 -4.300781 -3.179688 -4.6875 -3.734375 C -5.082031 -4.296875 -5.296875 -4.90625 -5.328125 -5.5625 C -5.367188 -6.226562 -5.191406 -6.894531 -4.796875 -7.5625 C -4.398438 -8.207031 -3.90625 -8.664062 -3.3125 -8.9375 C -2.71875 -9.21875 -2.085938 -9.3125 -1.421875 -9.21875 C -0.753906 -9.132812 -0.101562 -8.90625 0.53125 -8.53125 C 1.175781 -8.144531 1.691406 -7.679688 2.078125 -7.140625 C 2.472656 -6.597656 2.679688 -6.003906 2.703125 -5.359375 C 2.722656 -4.710938 2.535156 -4.066406 2.140625 -3.421875 Z M 0.8125 -4.203125 C 1.09375 -4.671875 1.109375 -5.15625 0.859375 -5.65625 C 0.617188 -6.15625 0.191406 -6.585938 -0.421875 -6.953125 C -1.015625 -7.304688 -1.597656 -7.476562 -2.171875 -7.46875 C -2.742188 -7.46875 -3.171875 -7.226562 -3.453125 -6.75 C -3.648438 -6.425781 -3.71875 -6.085938 -3.65625 -5.734375 C -3.59375 -5.390625 -3.429688 -5.066406 -3.171875 -4.765625 C -2.910156 -4.460938 -2.59375 -4.195312 -2.21875 -3.96875 C -1.613281 -3.601562 -1.03125 -3.425781 -0.46875 -3.4375 C 0.09375 -3.457031 0.519531 -3.710938 0.8125 -4.203125 Z M 0.8125 -4.203125 "/></g></g></g><g fill="#19345c" fill-opacity="1"><g transform="translate(31.56887, 50.404242)"><g/></g></g><g fill="#19345c" fill-opacity="1"><g transform="translate(35.992972, 44.781861)"><g><path d="M -3.28125 -7.921875 C -2.851562 -8.378906 -2.398438 -8.679688 -1.921875 -8.828125 C -1.453125 -8.972656 -0.992188 -8.976562 -0.546875 -8.84375 C -0.109375 -8.707031 0.285156 -8.472656 0.640625 -8.140625 C 0.984375 -7.816406 1.234375 -7.441406 1.390625 -7.015625 C 1.554688 -6.585938 1.582031 -6.128906 1.46875 -5.640625 C 1.351562 -5.160156 1.082031 -4.691406 0.65625 -4.234375 L -0.203125 -3.3125 L 1.5625 -1.671875 L 0.390625 -0.421875 L -5.3125 -5.75 Z M -0.578125 -5.015625 C -0.304688 -5.304688 -0.144531 -5.613281 -0.09375 -5.9375 C -0.0390625 -6.269531 -0.179688 -6.59375 -0.515625 -6.90625 C -0.835938 -7.207031 -1.15625 -7.320312 -1.46875 -7.25 C -1.789062 -7.175781 -2.09375 -6.988281 -2.375 -6.6875 L -3.046875 -5.96875 L -1.25 -4.296875 Z M -0.578125 -5.015625 "/></g></g></g><g fill="#19345c" fill-opacity="1"><g transform="translate(43.682874, 36.924226)"><g><path d="M 0.4375 -10.5 L 5.40625 -4.46875 L 4.0625 -3.359375 L 2 -5.859375 L -0.265625 -3.984375 L 1.796875 -1.484375 L 0.453125 -0.375 L -4.515625 -6.40625 L -3.171875 -7.515625 L -1.140625 -5.03125 L 1.125 -6.90625 L -0.90625 -9.390625 Z M 0.4375 -10.5 "/></g></g></g><g fill="#19345c" fill-opacity="1"><g transform="translate(53.13909, 29.50493)"><g><path d="M 3.328125 -4.203125 L 1.203125 -2.875 L 1.671875 -1.03125 L 0.171875 -0.109375 L -1.59375 -8.21875 L -0.203125 -9.078125 L 6.25 -3.875 L 4.75 -2.953125 Z M 2.265625 -5.109375 L 0.234375 -6.8125 L 0.1875 -6.78125 L 0.859375 -4.234375 Z M 2.265625 -5.109375 "/></g></g></g><g fill="#19345c" fill-opacity="1"><g transform="translate(63.461879, 23.461673)"><g><path d="M 1.8125 -3.8125 L 0.984375 -3.4375 L 2.109375 -0.953125 L 0.53125 -0.234375 L -2.6875 -7.34375 L 0.015625 -8.578125 C 0.578125 -8.828125 1.097656 -8.929688 1.578125 -8.890625 C 2.066406 -8.859375 2.488281 -8.707031 2.84375 -8.4375 C 3.195312 -8.175781 3.46875 -7.835938 3.65625 -7.421875 C 3.875 -6.953125 3.945312 -6.476562 3.875 -6 C 3.8125 -5.53125 3.597656 -5.101562 3.234375 -4.71875 L 5.984375 -2.703125 L 4.328125 -1.953125 Z M 0.390625 -4.734375 L 1.25 -5.125 C 1.625 -5.289062 1.898438 -5.503906 2.078125 -5.765625 C 2.265625 -6.035156 2.273438 -6.351562 2.109375 -6.71875 C 1.953125 -7.070312 1.71875 -7.265625 1.40625 -7.296875 C 1.101562 -7.328125 0.757812 -7.253906 0.375 -7.078125 L -0.484375 -6.6875 Z M 0.390625 -4.734375 "/></g></g></g><g fill="#19345c" fill-opacity="1"><g transform="translate(73.742575, 19.040961)"><g><path d="M -1.640625 -7.65625 L 0.84375 -8.390625 L 3.5625 -4.578125 L 3.59375 -4.578125 L 3.8125 -9.265625 L 6.296875 -9.984375 L 8.5 -2.484375 L 6.875 -2.015625 L 5.375 -7.15625 L 5.328125 -7.140625 L 5.046875 -1.484375 L 4 -1.171875 L 0.734375 -5.796875 L 0.703125 -5.78125 L 2.203125 -0.640625 L 0.5625 -0.15625 Z M -1.640625 -7.65625 "/></g></g></g><g fill="#19345c" fill-opacity="1"><g transform="translate(87.100934, 15.531024)"><g><path d="M 4.734375 -2.5 L 2.25 -2.15625 L 1.953125 -0.28125 L 0.203125 -0.03125 L 1.859375 -8.15625 L 3.46875 -8.375 L 7.28125 -1.03125 L 5.53125 -0.78125 Z M 4.125 -3.75 L 2.96875 -6.140625 L 2.90625 -6.125 L 2.484375 -3.515625 Z M 4.125 -3.75 "/></g></g></g><g fill="#19345c" fill-opacity="1"><g transform="translate(98.957776, 14.147108)"><g><path d="M 4.015625 0.078125 C 3.253906 0.078125 2.601562 -0.0976562 2.0625 -0.453125 C 1.53125 -0.816406 1.117188 -1.304688 0.828125 -1.921875 C 0.546875 -2.546875 0.40625 -3.21875 0.40625 -3.9375 C 0.394531 -4.664062 0.53125 -5.335938 0.8125 -5.953125 C 1.09375 -6.566406 1.5 -7.0625 2.03125 -7.4375 C 2.5625 -7.8125 3.207031 -8 3.96875 -8 C 4.882812 -8.007812 5.632812 -7.742188 6.21875 -7.203125 C 6.800781 -6.671875 7.179688 -5.976562 7.359375 -5.125 L 5.671875 -5.125 C 5.578125 -5.507812 5.382812 -5.832031 5.09375 -6.09375 C 4.800781 -6.351562 4.4375 -6.476562 4 -6.46875 C 3.40625 -6.46875 2.957031 -6.234375 2.65625 -5.765625 C 2.351562 -5.304688 2.207031 -4.703125 2.21875 -3.953125 C 2.21875 -3.191406 2.367188 -2.582031 2.671875 -2.125 C 2.984375 -1.664062 3.4375 -1.4375 4.03125 -1.4375 C 4.457031 -1.445312 4.8125 -1.578125 5.09375 -1.828125 C 5.375 -2.078125 5.5625 -2.378906 5.65625 -2.734375 L 7.328125 -2.734375 C 7.171875 -1.910156 6.800781 -1.238281 6.21875 -0.71875 C 5.644531 -0.195312 4.910156 0.0664062 4.015625 0.078125 Z M 4.015625 0.078125 "/></g></g></g><g fill="#19345c" fill-opacity="1"><g transform="translate(111.143015, 14.397411)"><g><path d="M 2.78125 0.359375 L 3.125 -2.296875 L 1.25 -7.71875 L 3.046875 -7.484375 L 4.1875 -3.90625 L 4.234375 -3.890625 L 6.265625 -7.0625 L 8.046875 -6.828125 L 4.859375 -2.078125 L 4.515625 0.578125 Z M 2.78125 0.359375 "/></g></g></g><g fill="#19345c" fill-opacity="1"><g transform="translate(122.84279, 16.289074)"><g/></g></g><g fill="#19345c" fill-opacity="1"><g transform="translate(129.745566, 18.061267)"><g><path d="M 7.125 2.546875 L 5.265625 1.890625 L 4.78125 0.65625 L 4.71875 0.625 L 4.609375 0.671875 C 4.367188 0.859375 4.054688 0.992188 3.671875 1.078125 C 3.285156 1.171875 2.851562 1.128906 2.375 0.953125 C 1.988281 0.816406 1.664062 0.613281 1.40625 0.34375 C 1.144531 0.0703125 0.972656 -0.242188 0.890625 -0.609375 C 0.816406 -0.972656 0.847656 -1.351562 0.984375 -1.75 C 1.160156 -2.21875 1.429688 -2.566406 1.796875 -2.796875 C 2.171875 -3.035156 2.578125 -3.164062 3.015625 -3.1875 L 3.25 -3.1875 L 3.265625 -3.21875 L 3.25 -3.3125 C 3.125 -3.601562 3.035156 -3.894531 2.984375 -4.1875 C 2.941406 -4.476562 2.984375 -4.800781 3.109375 -5.15625 C 3.265625 -5.570312 3.5 -5.890625 3.8125 -6.109375 C 4.125 -6.335938 4.476562 -6.460938 4.875 -6.484375 C 5.28125 -6.503906 5.679688 -6.441406 6.078125 -6.296875 C 6.503906 -6.148438 6.875 -5.929688 7.1875 -5.640625 C 7.507812 -5.347656 7.722656 -5.007812 7.828125 -4.625 C 7.941406 -4.238281 7.921875 -3.828125 7.765625 -3.390625 L 7.671875 -3.109375 L 6 -3.703125 L 6.0625 -3.875 C 6.144531 -4.113281 6.140625 -4.328125 6.046875 -4.515625 C 5.953125 -4.710938 5.800781 -4.847656 5.59375 -4.921875 C 5.414062 -4.984375 5.234375 -4.976562 5.046875 -4.90625 C 4.867188 -4.84375 4.738281 -4.707031 4.65625 -4.5 C 4.59375 -4.3125 4.582031 -4.128906 4.625 -3.953125 C 4.664062 -3.785156 4.765625 -3.515625 4.921875 -3.140625 L 5.453125 -1.765625 L 6.296875 -2.515625 L 7.890625 -1.953125 L 5.96875 -0.421875 Z M 4.28125 -0.640625 L 3.734375 -2.015625 L 3.5 -2 C 3.3125 -2.007812 3.140625 -1.960938 2.984375 -1.859375 C 2.828125 -1.753906 2.710938 -1.601562 2.640625 -1.40625 C 2.554688 -1.164062 2.5625 -0.945312 2.65625 -0.75 C 2.757812 -0.5625 2.925781 -0.425781 3.15625 -0.34375 C 3.519531 -0.21875 3.878906 -0.300781 4.234375 -0.59375 Z M 4.28125 -0.640625 "/></g></g></g><g fill="#19345c" fill-opacity="1"><g transform="translate(141.034543, 22.510537)"><g/></g></g><g fill="#19345c" fill-opacity="1"><g transform="translate(147.40646, 25.747991)"><g><path d="M 2.90625 1.90625 C 2.375 1.570312 1.976562 1.179688 1.71875 0.734375 C 1.457031 0.285156 1.332031 -0.164062 1.34375 -0.625 C 1.351562 -1.082031 1.472656 -1.5 1.703125 -1.875 L 1.75 -1.9375 L 3.375 -0.921875 L 3.328125 -0.859375 C 3.191406 -0.640625 3.144531 -0.378906 3.1875 -0.078125 C 3.238281 0.210938 3.421875 0.457031 3.734375 0.65625 C 4.003906 0.820312 4.257812 0.882812 4.5 0.84375 C 4.75 0.800781 4.945312 0.664062 5.09375 0.4375 C 5.21875 0.238281 5.25 0.0351562 5.1875 -0.171875 C 5.125 -0.390625 5 -0.582031 4.8125 -0.75 L 4.140625 -1.390625 C 3.773438 -1.765625 3.484375 -2.207031 3.265625 -2.71875 C 3.046875 -3.238281 3.132812 -3.816406 3.53125 -4.453125 C 3.78125 -4.867188 4.097656 -5.160156 4.484375 -5.328125 C 4.878906 -5.492188 5.300781 -5.546875 5.75 -5.484375 C 6.207031 -5.429688 6.65625 -5.265625 7.09375 -4.984375 C 7.613281 -4.671875 8 -4.296875 8.25 -3.859375 C 8.5 -3.429688 8.617188 -3 8.609375 -2.5625 C 8.597656 -2.125 8.488281 -1.738281 8.28125 -1.40625 L 8.25 -1.359375 L 6.625 -2.375 L 6.640625 -2.40625 C 6.765625 -2.601562 6.8125 -2.832031 6.78125 -3.09375 C 6.757812 -3.363281 6.59375 -3.597656 6.28125 -3.796875 C 6.039062 -3.941406 5.804688 -3.992188 5.578125 -3.953125 C 5.359375 -3.910156 5.179688 -3.773438 5.046875 -3.546875 C 4.910156 -3.347656 4.882812 -3.132812 4.96875 -2.90625 C 5.050781 -2.6875 5.1875 -2.488281 5.375 -2.3125 L 6.046875 -1.671875 C 6.472656 -1.242188 6.769531 -0.769531 6.9375 -0.25 C 7.101562 0.257812 7.015625 0.800781 6.671875 1.375 C 6.410156 1.789062 6.070312 2.085938 5.65625 2.265625 C 5.25 2.453125 4.804688 2.507812 4.328125 2.4375 C 3.847656 2.375 3.375 2.195312 2.90625 1.90625 Z M 2.90625 1.90625 "/></g></g></g><g fill="#19345c" fill-opacity="1"><g transform="translate(156.780005, 31.880484)"><g><path d="M 2.890625 2.5 C 2.160156 1.90625 1.738281 1.195312 1.625 0.375 C 1.507812 -0.445312 1.84375 -1.332031 2.625 -2.28125 L 5.40625 -5.6875 L 6.734375 -4.578125 L 4.03125 -1.28125 C 3.1875 -0.25 3.15625 0.582031 3.9375 1.21875 C 4.363281 1.5625 4.78125 1.664062 5.1875 1.53125 C 5.59375 1.40625 5.988281 1.109375 6.375 0.640625 L 9.078125 -2.65625 L 10.421875 -1.5625 L 7.640625 1.84375 C 6.859375 2.789062 6.054688 3.285156 5.234375 3.328125 C 4.410156 3.378906 3.628906 3.101562 2.890625 2.5 Z M 2.890625 2.5 "/></g></g></g><g fill="#19345c" fill-opacity="1"><g transform="translate(165.925181, 39.801274)"><g><path d="M 8.109375 -2.765625 C 8.546875 -2.304688 8.816406 -1.835938 8.921875 -1.359375 C 9.035156 -0.878906 9.007812 -0.421875 8.84375 0.015625 C 8.6875 0.453125 8.429688 0.835938 8.078125 1.171875 C 7.734375 1.492188 7.34375 1.722656 6.90625 1.859375 C 6.46875 1.992188 6.007812 1.988281 5.53125 1.84375 C 5.0625 1.695312 4.609375 1.394531 4.171875 0.9375 L 3.328125 0.03125 L 1.578125 1.671875 L 0.390625 0.421875 L 6.078125 -4.921875 Z M 5.03125 -0.25 C 5.3125 0.0507812 5.613281 0.234375 5.9375 0.296875 C 6.269531 0.367188 6.597656 0.25 6.921875 -0.0625 C 7.242188 -0.363281 7.378906 -0.675781 7.328125 -1 C 7.285156 -1.320312 7.117188 -1.632812 6.828125 -1.9375 L 6.171875 -2.640625 L 4.375 -0.953125 Z M 5.03125 -0.25 "/></g></g></g><g fill="#19345c" fill-opacity="1"><g transform="translate(173.269276, 48.027316)"><g><path d="M 6.453125 -1.84375 L 5.125 -0.859375 L 6.890625 1.546875 L 5.78125 2.34375 L 4.015625 -0.0625 L 2.59375 0.984375 L 4.671875 3.84375 L 3.453125 4.734375 L 0.34375 0.46875 L 6.65625 -4.140625 L 9.765625 0.125 L 8.53125 1.015625 Z M 6.453125 -1.84375 "/></g></g></g><g fill="#19345c" fill-opacity="1"><g transform="translate(179.432707, 56.893489)"><g><path d="M 3.953125 1.484375 L 3.515625 0.6875 L 1.125 2.015625 L 0.28125 0.5 L 7.109375 -3.296875 L 8.546875 -0.703125 C 8.859375 -0.148438 9.015625 0.363281 9.015625 0.84375 C 9.015625 1.332031 8.894531 1.757812 8.65625 2.125 C 8.414062 2.5 8.097656 2.800781 7.703125 3.03125 C 7.253906 3.269531 6.789062 3.378906 6.3125 3.359375 C 5.832031 3.335938 5.382812 3.164062 4.96875 2.84375 L 3.1875 5.734375 L 2.3125 4.15625 Z M 4.75 0 L 5.21875 0.84375 C 5.414062 1.195312 5.648438 1.453125 5.921875 1.609375 C 6.203125 1.765625 6.519531 1.75 6.875 1.5625 C 7.207031 1.375 7.375 1.125 7.375 0.8125 C 7.382812 0.5 7.289062 0.160156 7.09375 -0.203125 L 6.625 -1.046875 Z M 4.75 0 "/></g></g></g><g fill="#19345c" fill-opacity="1"><g transform="translate(184.683859, 66.776377)"><g><path d="M 7.5 -2.265625 L 8.4375 0.140625 L 4.859375 3.171875 L 4.875 3.203125 L 9.546875 3.03125 L 10.484375 5.453125 L 3.1875 8.265625 L 2.5625 6.671875 L 7.5625 4.75 L 7.546875 4.71875 L 1.890625 4.921875 L 1.5 3.890625 L 5.84375 0.25 L 5.828125 0.21875 L 0.828125 2.140625 L 0.203125 0.546875 Z M 7.5 -2.265625 "/></g></g></g><g fill="#19345c" fill-opacity="1"><g transform="translate(189.286008, 79.795726)"><g><path d="M 2.875 4.5 L 2.328125 2.0625 L 0.4375 1.921875 L 0.046875 0.203125 L 8.28125 1.171875 L 8.640625 2.765625 L 1.625 7.171875 L 1.234375 5.453125 Z M 4.078125 3.8125 L 6.375 2.453125 L 6.359375 2.390625 L 3.71875 2.1875 Z M 4.078125 3.8125 "/></g></g></g><g fill="#19345c" fill-opacity="1"><g transform="translate(191.621688, 91.529609)"><g><path d="M 3.015625 2.953125 L 2.9375 2.046875 L 0.21875 2.296875 L 0.046875 0.578125 L 7.828125 -0.140625 L 8.109375 2.8125 C 8.171875 3.4375 8.101562 3.96875 7.90625 4.40625 C 7.707031 4.851562 7.421875 5.195312 7.046875 5.4375 C 6.679688 5.6875 6.273438 5.832031 5.828125 5.875 C 5.316406 5.914062 4.84375 5.828125 4.40625 5.609375 C 3.976562 5.398438 3.644531 5.0625 3.40625 4.59375 L 0.609375 6.53125 L 0.4375 4.734375 Z M 4.359375 1.90625 L 4.4375 2.859375 C 4.476562 3.265625 4.59375 3.597656 4.78125 3.859375 C 4.976562 4.117188 5.273438 4.234375 5.671875 4.203125 C 6.046875 4.160156 6.296875 4 6.421875 3.71875 C 6.554688 3.4375 6.601562 3.085938 6.5625 2.671875 L 6.484375 1.71875 Z M 4.359375 1.90625 "/></g></g></g><g fill="#19345c" fill-opacity="1"><g transform="translate(192.394783, 102.742187)"><g><path d="M 7.796875 0.859375 L 7.734375 2.59375 L 4.671875 2.46875 L 4.65625 2.515625 L 7.625 5.25 L 7.5625 7.234375 L 4.359375 4.3125 L -0.25 6.9375 L -0.1875 4.984375 L 3.203125 3.171875 L 2.40625 2.390625 L -0.078125 2.296875 L -0.015625 0.5625 Z M 7.796875 0.859375 "/></g></g></g><g fill="#19345c" fill-opacity="1"><g transform="translate(191.636352, 114.583881)"><g><path d="M 5.84375 3.328125 L 4.203125 3.0625 L 3.703125 6 L 2.359375 5.765625 L 2.859375 2.828125 L 1.125 2.546875 L 0.546875 6.03125 L -0.953125 5.78125 L -0.09375 0.578125 L 7.609375 1.859375 L 6.75 7.0625 L 5.265625 6.8125 Z M 5.84375 3.328125 "/></g></g></g><g fill="#19345c" fill-opacity="1"><g transform="translate(189.609501, 125.193504)"><g><path d="M 4.265625 7.765625 L 4.84375 5.78125 L -1.1875 4 L -0.6875 2.359375 L 5.34375 4.140625 L 5.921875 2.15625 L 7.375 2.59375 L 5.71875 8.203125 Z M 4.265625 7.765625 "/></g></g></g></g></g><g transform="matrix(1, 0, 0, 1, 137, 261)"><g clip-path="url(#80dffbb427)"><g fill="#19345c" fill-opacity="1"><g transform="translate(2.138956, 12.756544)"><g><path d="M 5.703125 1.140625 L 5.03125 2.5 L 0.515625 0.25 L 3.984375 -6.75 L 5.546875 -5.96875 L 2.75 -0.328125 Z M 5.703125 1.140625 "/></g></g></g><g fill="#19345c" fill-opacity="1"><g transform="translate(12.650757, 17.590229)"><g><path d="M 3.375 -7.078125 L 5.015625 -6.453125 L 2.25 0.859375 L 0.609375 0.234375 Z M 3.375 -7.078125 "/></g></g></g><g fill="#19345c" fill-opacity="1"><g transform="translate(20.832523, 20.46604)"><g><path d="M 3.90625 -5.46875 L 3.484375 -3.875 L 6.296875 -3.109375 L 5.9375 -1.8125 L 3.125 -2.578125 L 2.265625 0.609375 L 0.578125 0.15625 L 2.625 -7.390625 L 7.515625 -6.0625 L 7.109375 -4.59375 Z M 3.90625 -5.46875 "/></g></g></g><g fill="#19345c" fill-opacity="1"><g transform="translate(31.882842, 23.144711)"><g><path d="M 3.234375 -5.875 L 3 -4.25 L 5.953125 -3.796875 L 5.734375 -2.453125 L 2.78125 -2.90625 L 2.53125 -1.15625 L 6.03125 -0.625 L 5.796875 0.875 L 0.578125 0.09375 L 1.75 -7.625 L 6.96875 -6.84375 L 6.734375 -5.34375 Z M 3.234375 -5.875 "/></g></g></g><g fill="#19345c" fill-opacity="1"><g transform="translate(43.708934, 24.567078)"><g/></g></g><g fill="#19345c" fill-opacity="1"><g transform="translate(51.906201, 24.83672)"><g><path d="M 4.015625 -0.125 C 3.253906 -0.0820312 2.597656 -0.226562 2.046875 -0.5625 C 1.492188 -0.894531 1.054688 -1.363281 0.734375 -1.96875 C 0.421875 -2.570312 0.25 -3.234375 0.21875 -3.953125 C 0.175781 -4.679688 0.28125 -5.359375 0.53125 -5.984375 C 0.78125 -6.609375 1.160156 -7.117188 1.671875 -7.515625 C 2.191406 -7.921875 2.832031 -8.144531 3.59375 -8.1875 C 4.507812 -8.226562 5.265625 -7.992188 5.859375 -7.484375 C 6.460938 -6.984375 6.878906 -6.316406 7.109375 -5.484375 L 5.421875 -5.390625 C 5.304688 -5.765625 5.097656 -6.070312 4.796875 -6.3125 C 4.492188 -6.5625 4.125 -6.675781 3.6875 -6.65625 C 3.09375 -6.625 2.65625 -6.367188 2.375 -5.890625 C 2.101562 -5.421875 1.988281 -4.8125 2.03125 -4.0625 C 2.0625 -3.300781 2.238281 -2.695312 2.5625 -2.25 C 2.894531 -1.8125 3.359375 -1.609375 3.953125 -1.640625 C 4.378906 -1.660156 4.726562 -1.800781 5 -2.0625 C 5.269531 -2.332031 5.441406 -2.644531 5.515625 -3 L 7.1875 -3.09375 C 7.0625 -2.257812 6.722656 -1.566406 6.171875 -1.015625 C 5.628906 -0.460938 4.910156 -0.164062 4.015625 -0.125 Z M 4.015625 -0.125 "/></g></g></g><g fill="#19345c" fill-opacity="1"><g transform="translate(65.38316, 23.735504)"><g><path d="M 4.625 -2.703125 L 2.15625 -2.25 L 1.9375 -0.359375 L 0.203125 -0.03125 L 1.5 -8.234375 L 3.09375 -8.53125 L 7.234375 -1.34375 L 5.5 -1.03125 Z M 3.953125 -3.9375 L 2.703125 -6.265625 L 2.640625 -6.265625 L 2.328125 -3.640625 Z M 3.953125 -3.9375 "/></g></g></g><g fill="#19345c" fill-opacity="1"><g transform="translate(78.415869, 20.964734)"><g><path d="M -1.9375 -7.59375 L 0.515625 -8.421875 L 3.375 -4.71875 L 3.40625 -4.71875 L 3.453125 -9.40625 L 5.921875 -10.21875 L 8.40625 -2.8125 L 6.78125 -2.28125 L 5.078125 -7.359375 L 5.03125 -7.34375 L 5 -1.671875 L 3.953125 -1.328125 L 0.5 -5.8125 L 0.46875 -5.8125 L 2.171875 -0.734375 L 0.546875 -0.1875 Z M -1.9375 -7.59375 "/></g></g></g><g fill="#19345c" fill-opacity="1"><g transform="translate(92.677122, 15.669483)"><g><path d="M -0.265625 -8.5625 C 0.285156 -8.84375 0.804688 -8.960938 1.296875 -8.921875 C 1.796875 -8.890625 2.226562 -8.734375 2.59375 -8.453125 C 2.96875 -8.179688 3.265625 -7.820312 3.484375 -7.375 C 3.691406 -6.957031 3.796875 -6.519531 3.796875 -6.0625 C 3.796875 -5.613281 3.65625 -5.179688 3.375 -4.765625 C 3.09375 -4.347656 2.675781 -4 2.125 -3.71875 L 1 -3.171875 L 2.0625 -1.015625 L 0.515625 -0.25 L -2.9375 -7.25 Z M 1.21875 -4.890625 C 1.582031 -5.078125 1.847656 -5.3125 2.015625 -5.59375 C 2.179688 -5.882812 2.164062 -6.226562 1.96875 -6.625 C 1.769531 -7.03125 1.507812 -7.253906 1.1875 -7.296875 C 0.863281 -7.335938 0.515625 -7.265625 0.140625 -7.078125 L -0.71875 -6.65625 L 0.359375 -4.46875 Z M 1.21875 -4.890625 "/></g></g></g></g></g></svg>